<svg width="66" height="66" viewBox="0 0 66 66" fill="none" xmlns="http://www.w3.org/2000/svg">
<circle cx="33" cy="33" r="33" fill="#24B185"/>
<path fill-rule="evenodd" clip-rule="evenodd" d="M35.6372 12.3929C46.1647 13.6859 54.3282 22.7056 54.3282 33.6176C54.3282 36.3929 53.8239 39.042 52.8468 41.4704L50.1361 36.866C50.3252 35.7937 50.4513 34.7214 50.4513 33.6176C50.4513 25.8279 45.3767 19.2365 38.3478 16.9658L35.6372 12.3929ZM47.4885 49.2917C43.6746 52.8239 38.5685 55 32.958 55C27.3476 55 22.2414 52.8239 18.4276 49.2917H25.2358C27.5682 50.427 30.1843 51.0893 32.958 51.0893C35.7317 51.0893 38.3794 50.427 40.7118 49.2917H47.4885ZM13.1954 41.7858C12.1552 39.2628 11.5879 36.4875 11.5879 33.6176C11.5879 22.5795 19.909 13.4967 30.6256 12.3298L27.9465 16.8397C20.7285 19.0158 15.4963 25.7017 15.4963 33.6176C15.4963 34.8476 15.6224 36.0775 15.8745 37.2759L13.1954 41.7858Z" fill="white"/>
<path fill-rule="evenodd" clip-rule="evenodd" d="M7.80469 49.8909L33.0202 12.9606L58.4248 49.8909L33.1148 7L7.80469 49.8909Z" fill="white"/>
<path fill-rule="evenodd" clip-rule="evenodd" d="M30.5934 26.6795C30.1206 28.0987 30.2782 27.7833 30.2782 27.7833C30.2782 27.7517 30.2782 27.8148 30.2782 27.8148C31.665 28.2248 35.5734 28.9817 34.88 31.4101C34.029 31.347 32.1378 30.0855 31.7911 31.2524C31.5705 31.9778 32.2009 32.1985 32.7367 32.3562C33.304 32.5454 33.7768 32.7347 34.3757 32.8608L34.092 33.9331C33.2095 33.8385 31.2553 32.6085 30.9716 33.87C30.814 34.5954 31.4444 34.7215 31.9487 34.9107C32.516 35.1 33.0204 35.2261 33.5877 35.4153L33.241 36.4876C32.4215 36.3299 30.4358 35.1946 30.1836 36.3615C29.8999 37.5599 31.9487 37.4653 32.8312 38.0014C32.7367 38.4114 32.2009 38.7898 31.7281 38.9475C29.8684 39.5152 27.8512 38.3168 26.8741 38.096L23.9428 47.2103C24.1949 47.1157 28.324 44.2143 28.6392 43.9935L33.241 40.7767C33.5247 40.8713 35.3213 42.1644 35.6365 42.3851L42.6338 47.2419C42.5392 46.7057 41.2784 42.6374 40.9948 41.7544C40.7741 40.9659 39.4188 36.7084 39.3873 36.2669L43.9891 32.8293C44.4619 32.4508 48.3388 29.5809 48.4333 29.4232L37.0548 29.1709C36.8027 28.7609 36.3299 27.121 36.1093 26.5218C35.7941 25.6072 35.4789 24.6926 35.1637 23.8096C34.6909 22.485 33.8714 19.8989 33.3986 18.732L33.241 18.4797L30.5934 26.6795ZM23.5645 35.0054C22.9342 34.8161 21.8625 34.6584 21.7679 34.0277C21.6734 33.5862 21.9571 33.2393 22.2722 33.1446C22.7135 33.0185 24.9514 33.8385 25.4557 34.0277C26.1491 34.2169 26.8426 34.4377 27.536 34.6584C28.1979 34.8792 29.2695 35.0054 29.3641 35.6676C29.4271 36.1092 29.175 36.4245 28.8598 36.5191C28.4185 36.6453 26.1491 35.8253 25.6448 35.6676C24.9514 35.4469 24.2895 35.2261 23.5645 35.0054ZM18.4584 26.3956C18.9312 26.1749 21.3582 27.121 21.9571 27.3102L30.5303 30.054C31.0977 30.3063 31.1607 31.1262 30.5934 31.4101C30.1521 31.5993 29.238 31.2209 28.7968 31.0632C27.2208 30.5586 19.1833 28.0987 18.5214 27.7833C17.8911 27.531 17.828 26.7425 18.4584 26.3956ZM6.29192 25.2603C6.70167 25.1026 8.90803 25.9226 9.47538 26.1118L18.9312 29.1079C21.9886 30.1171 25.3296 31.1262 28.3555 32.1354C28.7337 32.2616 29.6478 32.4824 29.8999 32.6716C30.3727 32.987 30.2466 33.7754 29.7108 33.9646C29.2065 34.1538 24.1634 32.3877 23.3124 32.1039C22.0831 31.7255 6.38648 26.7741 6.07128 26.5533C5.53545 26.1749 5.72457 25.481 6.29192 25.2603Z" fill="white"/>
</svg>
