<svg width="170" height="58" viewBox="0 0 170 58" fill="none" xmlns="http://www.w3.org/2000/svg">
<path d="M83.2158 32.6964C79.293 32.6964 76.2842 32.0867 74.0752 30.791C71.8662 29.5335 70.7617 27.3232 70.7617 24.1221H77.96C77.96 25.9132 78.4551 26.9421 79.4453 27.247C80.4356 27.5518 81.6543 27.7043 83.1397 27.7043C84.5869 27.7043 85.8057 27.59 86.834 27.3994C87.8242 27.2089 88.3193 26.6373 88.3193 25.6846C88.3193 24.7319 87.5957 24.1221 86.1865 23.8935C84.7774 23.6649 82.9492 23.3981 80.6641 23.1313C77.0078 22.5978 74.4561 21.8738 73.0088 20.9592C71.5234 20.0446 70.7998 18.5203 70.7998 16.3482C70.7998 13.5663 71.9043 11.5847 74.1514 10.4033C76.3984 9.22201 79.3691 8.65039 83.0254 8.65039C86.6817 8.65039 89.6524 9.29822 91.9375 10.632C94.1846 11.9277 95.2891 14.0998 95.2891 17.1484H88.1289C88.1289 15.4336 87.5957 14.4428 86.5674 14.1379C85.5391 13.833 84.3203 13.6806 82.9492 13.6806C81.4258 13.6806 80.169 13.7568 79.1787 13.9855C78.1885 14.176 77.6934 14.7476 77.6934 15.7003C77.6934 16.7292 78.417 17.339 79.8643 17.5676C81.3115 17.7963 83.1397 18.0249 85.2725 18.2917C89.1572 18.8633 91.7852 19.5492 93.1944 20.3876C94.6035 21.2641 95.3272 22.7122 95.3272 24.8081C95.3272 27.6662 94.2227 29.6859 92.0518 30.9053C89.8809 32.1248 86.9483 32.6964 83.2158 32.6964Z" fill="white"/>
<path d="M112.391 32.5822H105.192V14.6334H97.1562V8.87915H120.389V14.6334H110.41V15.0907H110.753C111.248 15.0907 111.667 15.2431 111.934 15.548C112.238 15.8529 112.391 16.3102 112.391 16.8056V32.5822Z" fill="white"/>
<path d="M125.721 8.84106H135.585L144.269 32.5822H136.842L135.166 27.2852H126.14L124.464 32.5822H117.037L125.721 8.84106ZM128.158 21.7596H133.3L131.434 15.3194C131.281 14.9002 131.167 14.4429 131.091 13.9475C130.977 13.4521 130.938 12.9948 130.938 12.5756V12.1945H130.52V12.5756C130.52 12.9948 130.481 13.4521 130.405 13.9856C130.291 14.481 130.177 14.9383 130.024 15.3194L128.158 21.7596Z" fill="white"/>
<path d="M146.365 8.87915H161.638C164.38 8.87915 166.437 9.6032 167.731 11.0894C169.026 12.5756 169.674 14.481 169.674 16.8437C169.674 19.2064 168.988 21.0736 167.617 22.4836C166.513 23.6269 164.913 24.2747 162.856 24.5033L163.047 24.8844L165.713 24.4652L169.636 32.5822H161.828L157.563 24.5796H153.563V32.5822H146.365V8.87915ZM159.657 19.778C160.571 19.778 161.257 19.5493 161.752 19.0158C162.247 18.5204 162.514 17.8345 162.514 16.9199C162.514 16.1196 162.247 15.4337 161.752 14.8621C161.257 14.2905 160.571 14.0237 159.657 14.0237H153.525V19.778H159.657Z" fill="white"/>
<path d="M76.2461 45.9962C74.4941 45.9962 73.1611 45.7295 72.209 45.1579C71.2568 44.6244 70.7617 43.6336 70.7617 42.2617H73.6182C73.6182 43.1 73.8848 43.6336 74.3418 43.8241C74.8369 44.0146 75.4463 44.0909 76.208 44.0909C76.9697 44.0909 77.5791 44.0527 78.0742 43.9003C78.5693 43.7479 78.7979 43.4811 78.7979 43.0238C78.7979 42.5284 78.4551 42.1855 77.8076 42.0711C77.1602 41.9187 76.2842 41.8044 75.2178 41.6901C73.6182 41.4614 72.4756 41.1566 71.79 40.7374C71.1045 40.3563 70.7998 39.6703 70.7998 38.7558C70.7998 37.6125 71.2568 36.7742 72.2471 36.2788C73.2373 35.7834 74.5322 35.5166 76.1699 35.5166C77.8076 35.5166 79.1406 35.8215 80.0928 36.355C81.083 36.9266 81.5781 37.8793 81.5781 39.2131H78.7217C78.7217 38.3747 78.4551 37.8793 77.96 37.6887C77.4648 37.4982 76.8555 37.422 76.1318 37.422C75.3701 37.422 74.7227 37.4982 74.2275 37.6125C73.7705 37.765 73.5039 38.0698 73.5039 38.489C73.5039 39.0225 73.8467 39.3655 74.5322 39.4798C75.1797 39.5941 76.0176 39.7466 77.0459 39.8609C78.7598 40.0895 79.9404 40.3944 80.5879 40.7374C81.2354 41.1184 81.5781 41.7663 81.5781 42.6809C81.5781 43.8622 81.1211 44.7006 80.169 45.2341C79.2168 45.7295 77.8838 45.9962 76.2461 45.9962Z" fill="white"/>
<path d="M83.8652 35.5925H90.1494C91.5205 35.5925 92.4727 35.9355 93.082 36.5833C93.6914 37.1931 93.9961 38.1839 93.9961 39.4414C93.9961 40.7371 93.6914 41.6898 93.082 42.3376C92.4727 42.9854 91.5205 43.2903 90.1494 43.2903H86.7217V45.9197H83.8652V35.5925ZM89.502 41.1944C90.0732 41.1944 90.4922 41.08 90.7588 40.8895C91.0254 40.699 91.1777 40.2036 91.1777 39.4414C91.1777 38.7174 91.0254 38.222 90.7969 38.0314C90.5303 37.8409 90.0732 37.7266 89.502 37.7266H86.6836V41.1944H89.502Z" fill="white"/>
<path d="M96.2422 35.5925H105.269V37.7647H99.0986V39.632H105.002V41.8041H99.0986V43.7476H105.269V45.9197H96.2422V35.5925Z" fill="white"/>
<path d="M111.592 35.5925H115.515L119.59 45.9197H116.657L115.743 43.4808H111.325L110.449 45.9197H107.479L111.592 35.5925ZM112.125 41.3849H115.02L113.877 38.0695C113.801 37.9171 113.763 37.7647 113.725 37.5741C113.687 37.3836 113.648 37.1931 113.648 37.0406V36.8882H113.496V37.0406C113.496 37.1931 113.458 37.3836 113.42 37.5741C113.382 37.7647 113.344 37.9171 113.268 38.0695L112.125 41.3849Z" fill="white"/>
<path d="M124.044 40.1655L124.196 40.2798L128.729 35.5925H132.004L127.472 40.3941L132.004 45.9197H128.729L125.529 42.2614L124.577 43.2522V45.9197H121.721V35.5925H124.577V38.7555C124.577 38.9079 124.539 39.0984 124.501 39.2509C124.425 39.4414 124.387 39.5938 124.272 39.7082L124.044 40.1655Z" fill="white"/>
<path d="M134.176 35.5925H143.202V37.7647H137.032V39.632H142.936V41.8041H137.032V43.7476H143.202V45.9197H134.176V35.5925Z" fill="white"/>
<path d="M145.486 35.5925H152.189C153.408 35.5925 154.284 35.9355 154.855 36.5452C155.427 37.1931 155.731 37.9933 155.731 38.9841C155.731 39.9749 155.427 40.7752 154.817 41.3849C154.322 41.8422 153.637 42.1471 152.685 42.2233L152.761 42.3757L153.827 42.2233L155.693 45.9197H152.57L150.59 42.2614H148.343V45.9197H145.486V35.5925ZM151.39 40.4322C151.885 40.4322 152.266 40.3179 152.494 40.0511C152.761 39.7844 152.875 39.4414 152.875 39.0222C152.875 38.603 152.761 38.2601 152.494 37.9933C152.266 37.6885 151.885 37.5741 151.39 37.5741H148.343V40.4322H151.39Z" fill="white"/>
<path d="M163.388 45.9962C161.674 45.9962 160.341 45.7295 159.351 45.1579C158.398 44.6244 157.941 43.6336 157.941 42.2617H160.798C160.798 43.1 161.026 43.6336 161.521 43.8241C161.979 44.0146 162.588 44.0909 163.388 44.0909C164.111 44.0909 164.759 44.0527 165.216 43.9003C165.711 43.7479 165.939 43.4811 165.939 43.0238C165.939 42.5284 165.635 42.1855 164.987 42.0711C164.302 41.9187 163.464 41.8044 162.397 41.6901C160.76 41.4614 159.617 41.1566 158.97 40.7374C158.284 40.3563 157.941 39.6703 157.941 38.7558C157.941 37.6125 158.437 36.7742 159.427 36.2788C160.379 35.7834 161.712 35.5166 163.312 35.5166C164.987 35.5166 166.282 35.8215 167.272 36.355C168.225 36.9266 168.72 37.8793 168.72 39.2131H165.863C165.863 38.3747 165.635 37.8793 165.14 37.6887C164.645 37.4982 163.997 37.422 163.273 37.422C162.512 37.422 161.864 37.4982 161.407 37.6125C160.912 37.765 160.684 38.0698 160.684 38.489C160.684 39.0225 160.988 39.3655 161.674 39.4798C162.359 39.5941 163.197 39.7466 164.226 39.8609C165.901 40.0895 167.082 40.3944 167.768 40.7374C168.415 41.1184 168.72 41.7663 168.72 42.6809C168.72 43.8622 168.263 44.7006 167.311 45.2341C166.358 45.7295 165.063 45.9962 163.388 45.9962Z" fill="white"/>
<path d="M73.999 3.23905C73.9609 2.47689 73.3897 1.90527 72.3613 1.90527C71.3711 1.90527 70.876 2.43878 70.876 3.16283C70.876 3.69634 71.1045 3.96309 71.5615 4.19174C71.8281 4.30606 72.1709 4.38228 72.666 4.4966C73.1611 4.61093 73.3135 4.76336 73.3135 4.992C73.3135 5.37308 73.0088 5.60173 72.5137 5.60173C71.9424 5.60173 71.5996 5.33497 71.5996 4.91579H70.7617C70.7998 5.83037 71.4854 6.28767 72.5137 6.28767C73.4658 6.28767 74.1133 5.86848 74.1133 4.992C74.1133 4.38228 73.8467 4.15363 73.5039 4.0012C73.1992 3.84877 72.7422 3.73445 72.2852 3.62012C71.8281 3.5058 71.6377 3.35337 71.6377 3.12472C71.6377 2.81986 71.9043 2.62932 72.3613 2.62932C72.8945 2.62932 73.1611 2.81986 73.1992 3.23905H73.999Z" fill="white"/>
<path d="M75.333 6.13519V3.08657H74.5332V6.13519H75.333ZM75.333 2.7436V1.98145H74.5332V2.7436H75.333Z" fill="white"/>
<path d="M78.6094 6.13534V4.03941C78.6094 3.39158 78.1904 3.0105 77.6191 3.0105C77.124 3.0105 76.8193 3.20104 76.6289 3.54401V3.08671H75.8672V6.13534H76.667V4.38238C76.667 3.92508 76.8955 3.69644 77.3145 3.69644C77.6953 3.69644 77.8096 3.84887 77.8096 4.30616V6.13534H78.6094Z" fill="white"/>
<path d="M81.0449 5.03021C81.0068 5.37318 80.7783 5.52561 80.4736 5.52561C80.1689 5.52561 79.8643 5.22075 79.8643 4.57292C79.8643 3.88698 80.1689 3.69644 80.4736 3.69644C80.7783 3.69644 81.0068 3.88698 81.0449 4.19184H81.8828C81.8066 3.46779 81.2734 3.0105 80.5117 3.0105C79.6357 3.0105 79.0645 3.5059 79.0645 4.57292C79.0645 5.67804 79.6357 6.21155 80.4736 6.21155C81.1973 6.21155 81.7686 5.75426 81.8447 5.03021H81.0449Z" fill="white"/>
<path d="M83.0254 4.30616C83.0635 3.88698 83.3301 3.65833 83.6348 3.65833C83.9395 3.65833 84.2441 3.88698 84.2441 4.30616H83.0254ZM85.082 4.83967C85.082 3.62022 84.5869 3.0105 83.6729 3.0105C82.7207 3.0105 82.1875 3.62022 82.1875 4.57292C82.1875 5.63993 82.6826 6.21155 83.7109 6.21155C84.3584 6.21155 84.8535 5.86858 85.0439 5.25886H84.2061C84.168 5.4494 83.9395 5.56372 83.6729 5.56372C83.292 5.56372 83.0254 5.29696 82.9873 4.83967H85.082Z" fill="white"/>
<path d="M89.6533 6.13524V5.4493H87.9014C87.9014 5.22065 88.1299 4.91579 88.4727 4.68714C89.3486 4.07742 89.6533 3.73445 89.6533 3.08661C89.6533 2.28635 89.082 1.90527 88.2441 1.90527C87.4063 1.90527 86.9111 2.43878 86.9111 3.31526H87.7109C87.7109 2.78175 87.9395 2.59121 88.2822 2.59121C88.5869 2.59121 88.8535 2.70554 88.8535 3.12472C88.8535 3.46769 88.7012 3.69634 88.0918 4.11552C87.0635 4.83957 86.873 5.37308 86.873 6.13524H89.6533Z" fill="white"/>
<path d="M91.4053 5.63984C91.0244 5.63984 90.7959 5.22065 90.7959 4.07742C90.7959 2.97229 91.0244 2.55311 91.4053 2.55311C91.7861 2.55311 91.9766 2.97229 91.9766 4.07742C91.9766 5.22065 91.7861 5.63984 91.4053 5.63984ZM91.3672 6.28767C92.2432 6.28767 92.7764 5.56362 92.7764 4.07742C92.7764 2.55311 92.2432 1.90527 91.3672 1.90527C90.4912 1.90527 89.9961 2.55311 89.9961 4.07742C89.9961 5.60173 90.4912 6.28767 91.3672 6.28767Z" fill="white"/>
<path d="M94.7197 6.13539V2.05786H94.0723C94.0342 2.51515 93.7676 2.7438 93.082 2.7438V3.31542H93.9199V6.13539H94.7197Z" fill="white"/>
<path d="M96.5078 4.07742C96.165 4.07742 95.9365 3.81066 95.9365 3.31526C95.9365 2.89608 96.127 2.55311 96.5078 2.55311C96.8887 2.55311 97.1172 2.89608 97.1172 3.35337C97.1172 3.81066 96.8506 4.07742 96.5078 4.07742ZM95.2129 5.25876C95.2891 5.90659 95.7461 6.28767 96.3936 6.28767C97.4219 6.28767 97.917 5.60173 97.917 3.96309C97.917 2.62932 97.46 1.90527 96.4697 1.90527C95.6699 1.90527 95.1367 2.515 95.1367 3.35337C95.1367 4.22985 95.6318 4.72525 96.2793 4.72525C96.6982 4.72525 96.9268 4.57282 97.1172 4.34417C97.0791 5.22065 96.8506 5.63984 96.4316 5.63984C96.165 5.63984 96.0127 5.4874 96.0127 5.25876H95.2129Z" fill="white"/>
<path d="M72.8564 50.8738H74.3037L76.3984 55.18H75.2939L74.7988 54.1129H72.3994L71.9043 55.18H70.7617L72.8564 50.8738ZM72.7422 53.3127H74.4561L73.7324 51.7503C73.6943 51.7122 73.6943 51.6359 73.6563 51.5597C73.6563 51.4835 73.6563 51.4073 73.6182 51.3311V51.293H73.5801V51.3311C73.5801 51.4073 73.5801 51.4835 73.542 51.5597C73.542 51.6359 73.5039 51.7122 73.4658 51.7503L72.7422 53.3127Z" fill="white"/>
<path d="M88.6631 55.2181C87.8633 55.2181 87.2158 55.0275 86.7588 54.6846C86.2637 54.3035 86.0352 53.77 86.0352 53.0078C86.0352 52.2838 86.2637 51.7122 86.7588 51.3692C87.2158 50.9881 87.8633 50.8357 88.6631 50.8357C89.4629 50.8357 90.0723 50.9881 90.4912 51.3311C90.9102 51.636 91.1387 52.0932 91.1387 52.6268H90.0342C90.0342 52.2838 89.9199 52.017 89.6533 51.8646C89.4248 51.6741 89.082 51.5978 88.625 51.5978C88.168 51.5978 87.8252 51.7122 87.5586 51.9027C87.2539 52.0932 87.1396 52.4743 87.1396 53.0078C87.1396 53.5413 87.2539 53.9224 87.5586 54.113C87.8252 54.3035 88.168 54.4178 88.625 54.4178C89.082 54.4178 89.4248 54.3416 89.6533 54.1892C89.9199 53.9986 90.0342 53.7319 90.0342 53.3889H91.1387C91.1387 53.9224 90.9102 54.3797 90.4912 54.7227C90.0723 55.0275 89.4629 55.2181 88.6631 55.2181Z" fill="white"/>
<path d="M102.907 50.8738H104.354L106.449 55.18H105.345L104.85 54.1129H102.412L101.917 55.18H100.812L102.907 50.8738ZM102.793 53.3127H104.507L103.783 51.7503C103.745 51.7122 103.707 51.6359 103.707 51.5597C103.669 51.4835 103.669 51.4073 103.669 51.3311V51.293H103.631V51.3311C103.631 51.4073 103.593 51.4835 103.593 51.5597C103.555 51.6359 103.555 51.7122 103.517 51.7503L102.793 53.3127Z" fill="white"/>
<path d="M116.58 50.8738H119.284C119.97 50.8738 120.503 51.0262 120.922 51.3692C121.303 51.674 121.493 52.2457 121.493 53.0078C121.493 53.8081 121.303 54.3416 120.922 54.6846C120.503 54.9894 119.97 55.18 119.284 55.18H116.58V50.8738ZM119.056 54.3797C119.513 54.3797 119.855 54.3035 120.084 54.1129C120.313 53.9224 120.427 53.5413 120.427 53.0078C120.427 52.4743 120.313 52.0932 120.084 51.9408C119.855 51.7503 119.513 51.6359 119.056 51.6359H117.646V54.3797H119.056Z" fill="white"/>
<path d="M131.701 50.8738H135.967V51.674H132.768V52.5886H135.814V53.3889H132.768V54.3797H135.967V55.18H131.701V50.8738Z" fill="white"/>
<path d="M147.239 55.18H146.211V50.8738H147.925L149.144 53.6175C149.144 53.6556 149.182 53.7319 149.182 53.77C149.182 53.8462 149.182 53.8843 149.182 53.9605L149.22 54.3035H149.258L149.296 53.9605C149.296 53.8843 149.296 53.8462 149.296 53.77C149.296 53.7319 149.334 53.6556 149.334 53.6175L150.553 50.8738H152.267V55.18H151.2V52.6267C151.2 52.5886 151.2 52.5124 151.2 52.4362C151.2 52.3981 151.238 52.3219 151.238 52.2838L151.353 51.5978H151.276L149.867 55.18H148.572L147.163 51.5978H147.087L147.201 52.3219C147.201 52.36 147.239 52.3981 147.239 52.4743C147.239 52.5505 147.239 52.5886 147.239 52.6267V55.18Z" fill="white"/>
<path d="M166.929 50.8738H168.109L165.862 53.427V55.18H164.796V53.427L162.549 50.8738H163.729L165.139 52.5124C165.177 52.5124 165.215 52.5886 165.215 52.6267C165.253 52.703 165.253 52.7411 165.253 52.7792L165.291 52.9316H165.367L165.405 52.7792C165.405 52.7411 165.405 52.703 165.443 52.6267C165.443 52.5886 165.481 52.5505 165.52 52.5124L166.929 50.8738Z" fill="white"/>
<path fill-rule="evenodd" clip-rule="evenodd" d="M37.0205 6.5164C49.7412 8.07882 59.6055 18.9776 59.6055 32.1629C59.6055 35.5164 58.9961 38.7175 57.8155 41.6518L54.5401 36.088C54.7686 34.7924 54.9209 33.4967 54.9209 32.1629C54.9209 22.7503 48.7891 14.7858 40.2959 12.042L37.0205 6.5164ZM51.3409 51.1025C46.7325 55.3706 40.5625 58 33.7832 58C27.0039 58 20.834 55.3706 16.2256 51.1025H24.4522C27.2705 52.4744 30.4317 53.2746 33.7832 53.2746C37.1348 53.2746 40.334 52.4744 43.1524 51.1025H51.3409ZM9.90332 42.0328C8.64648 38.9842 7.96094 35.6307 7.96094 32.1629C7.96094 18.8252 18.0156 7.85017 30.9649 6.44019L27.7276 11.8896C19.0059 14.519 12.6836 22.5979 12.6836 32.1629C12.6836 33.6491 12.8359 35.1353 13.1406 36.5834L9.90332 42.0328Z" fill="white"/>
<path fill-rule="evenodd" clip-rule="evenodd" d="M3.39062 51.8266L33.8594 7.20237L64.5567 51.8266L33.9737 0L3.39062 51.8266Z" fill="white"/>
<path fill-rule="evenodd" clip-rule="evenodd" d="M30.9265 23.7794C30.3552 25.4942 30.5456 25.1131 30.5456 25.1131C30.5456 25.075 30.5456 25.1512 30.5456 25.1512C32.2214 25.6466 36.9441 26.5612 36.1062 29.4955C35.0779 29.4193 32.7927 27.895 32.3738 29.305C32.1072 30.1815 32.8689 30.4482 33.5163 30.6388C34.2019 30.8674 34.7732 31.0961 35.4968 31.2485L35.154 32.5441C34.0876 32.4298 31.7263 30.9436 31.3835 32.4679C31.1931 33.3444 31.9548 33.4968 32.5642 33.7255C33.2497 33.9541 33.8591 34.1066 34.5447 34.3352L34.1257 35.6309C33.1355 35.4403 30.7361 34.0685 30.4314 35.4784C30.0886 36.9265 32.5642 36.8122 33.6306 37.4601C33.5163 37.9555 32.8689 38.4127 32.2976 38.6033C30.0505 39.2892 27.613 37.8411 26.4323 37.5744L22.8903 48.5875C23.195 48.4732 28.1843 44.9673 28.5652 44.7005L34.1257 40.8135C34.4685 40.9279 36.6394 42.4903 37.0202 42.757L45.4753 48.6256C45.3611 47.9778 43.8376 43.0619 43.4949 41.9949C43.2283 41.0422 41.5906 35.8976 41.5525 35.3641L47.113 31.2104C47.6843 30.7531 52.3689 27.2853 52.4831 27.0947L38.7341 26.7899C38.4294 26.2945 37.8581 24.3129 37.5915 23.5888C37.2107 22.4837 36.8298 21.3786 36.449 20.3116C35.8777 18.711 34.8874 15.5862 34.3161 14.1762L34.1257 13.8713L30.9265 23.7794ZM22.4333 33.8398C21.6716 33.6112 20.3767 33.4206 20.2624 32.6585C20.1482 32.125 20.4909 31.7058 20.8718 31.5915C21.405 31.439 24.1091 32.4298 24.7185 32.6585C25.5564 32.8871 26.3943 33.1539 27.2321 33.4206C28.032 33.6874 29.3269 33.8398 29.4411 34.6401C29.5173 35.1736 29.2126 35.5547 28.8318 35.669C28.2986 35.8214 25.5564 34.8306 24.947 34.6401C24.1091 34.3733 23.3093 34.1066 22.4333 33.8398ZM16.2634 23.4364C16.8347 23.1696 19.7673 24.3129 20.4909 24.5415L30.8503 27.8569C31.5359 28.1618 31.612 29.1526 30.9265 29.4955C30.3933 29.7242 29.2888 29.2669 28.7556 29.0763C26.8513 28.4666 17.1394 25.4942 16.3396 25.1131C15.5778 24.8083 15.5017 23.8556 16.2634 23.4364ZM1.56221 22.0645C2.05733 21.874 4.72334 22.8648 5.40889 23.0934L16.8347 26.7137C20.529 27.9331 24.5661 29.1526 28.2224 30.372C28.6794 30.5244 29.7839 30.7912 30.0886 31.0198C30.6599 31.4009 30.5075 32.3536 29.8601 32.5823C29.2507 32.8109 23.157 30.6769 22.1286 30.3339C20.6433 29.8766 1.67647 23.8937 1.29561 23.6269C0.648145 23.1696 0.87666 22.3313 1.56221 22.0645Z" fill="white"/>
</svg>
