<?xml version="1.0" encoding="UTF-8"?>
<!DOCTYPE svg PUBLIC "-//W3C//DTD SVG 1.1//EN" "http://www.w3.org/Graphics/SVG/1.1/DTD/svg11.dtd">
<!-- Creator: CorelDRAW X7 -->
<svg xmlns="http://www.w3.org/2000/svg" xml:space="preserve" width="91.4051mm" height="95.5338mm" version="1.1" style="shape-rendering:geometricPrecision; text-rendering:geometricPrecision; image-rendering:optimizeQuality; fill-rule:evenodd; clip-rule:evenodd"
viewBox="0 0 9465 9892"
 xmlns:xlink="http://www.w3.org/1999/xlink">
 <defs>
  <style type="text/css">
   <![CDATA[
    .fil2 {fill:none}
    .fil1 {fill:#727271;fill-rule:nonzero}
    .fil0 {fill:url(#id1)}
   ]]>
  </style>
   <clipPath id="id0">
    <path d="M9434 3727c55,-199 -19,-389 -121,-505 -259,-295 -845,-243 -1208,-771 -250,-363 -196,-605 -244,-1074 -39,-381 -343,-620 -758,-508 -380,102 -707,209 -1110,66 -307,-109 -409,-242 -567,-422 -164,-187 -284,-404 -510,-480 -545,-185 -749,461 -1138,747 -854,630 -1583,-309 -2059,249 -223,261 -105,733 -221,1099 -289,906 -1187,740 -1427,1191 -339,636 740,1010 397,2005 -141,411 -743,897 -319,1352 268,288 836,222 1202,777 242,366 172,629 231,1085 50,379 358,580 781,475 403,-99 689,-208 1110,-54 215,79 358,196 490,334l223 272c227,289 532,454 873,206 87,-63 234,-248 311,-349 903,-1181 1851,62 2374,-574 322,-391 -127,-1300 820,-1798 312,-163 683,-182 836,-484 87,-173 87,-351 -1,-523 -203,-400 -640,-748 -420,-1464 100,-323 382,-587 455,-852z"/>
   </clipPath>
  <linearGradient id="id1" gradientUnits="userSpaceOnUse" x1="1356.52" y1="506.535" x2="8108.26" y2="9385.77">
   <stop offset="0" style="stop-opacity:1; stop-color:#B0AEBB"/>
   <stop offset="0.580392" style="stop-opacity:1; stop-color:#EFEFF1"/>
   <stop offset="1" style="stop-opacity:1; stop-color:#929294"/>
  </linearGradient>
 </defs>
 <g id="Layer_x0020_1">
  <metadata id="CorelCorpID_0Corel-Layer"/>
  <path class="fil0" d="M9434 3727c55,-199 -19,-389 -121,-505 -259,-295 -845,-243 -1208,-771 -250,-363 -196,-605 -244,-1074 -39,-381 -343,-620 -758,-508 -380,102 -707,209 -1110,66 -307,-109 -409,-242 -567,-422 -164,-187 -284,-404 -510,-480 -545,-185 -749,461 -1138,747 -854,630 -1583,-309 -2059,249 -223,261 -105,733 -221,1099 -289,906 -1187,740 -1427,1191 -339,636 740,1010 397,2005 -141,411 -743,897 -319,1352 268,288 836,222 1202,777 242,366 172,629 231,1085 50,379 358,580 781,475 403,-99 689,-208 1110,-54 215,79 358,196 490,334l223 272c227,289 532,454 873,206 87,-63 234,-248 311,-349 903,-1181 1851,62 2374,-574 322,-391 -127,-1300 820,-1798 312,-163 683,-182 836,-484 87,-173 87,-351 -1,-523 -203,-400 -640,-748 -420,-1464 100,-323 382,-587 455,-852z"/>
  <g style="clip-path:url(#id0)">
   <g id="_348237800">
    <path id="1" class="fil1" d="M3216 4549c147,147 335,218 557,218 223,0 407,-71 553,-218 147,-146 222,-326 222,-538 0,-213 -75,-392 -222,-539 -146,-146 -330,-217 -553,-217 -222,0 -410,71 -557,217 -146,147 -217,326 -217,539 0,212 71,392 217,538zm340 -755c52,-62 128,-90 217,-90 90,0 161,28 213,90 109,113 109,321 0,439 -52,57 -123,85 -213,85 -89,0 -165,-28 -217,-85 -99,-118 -99,-326 0,-439zm1578 2626c146,146 335,217 557,217 222,0 407,-71 553,-217 146,-146 222,-326 222,-539 0,-212 -76,-392 -222,-538 -146,-146 -331,-217 -553,-217 -222,0 -411,71 -557,217 -147,146 -217,326 -217,538 0,213 70,393 217,539zm340 -756c52,-61 128,-90 217,-90 90,0 161,29 213,90 108,114 108,321 0,439 -52,57 -123,85 -213,85 -89,0 -165,-28 -217,-85 -99,-118 -99,-325 0,-439zm-2168 841l340 274 2541 -3396 -340 -270 -2541 3392z"/>
   </g>
  </g>
  <path class="fil2" d="M9434 3727c55,-199 -19,-389 -121,-505 -259,-295 -845,-243 -1208,-771 -250,-363 -196,-605 -244,-1074 -39,-381 -343,-620 -758,-508 -380,102 -707,209 -1110,66 -307,-109 -409,-242 -567,-422 -164,-187 -284,-404 -510,-480 -545,-185 -749,461 -1138,747 -854,630 -1583,-309 -2059,249 -223,261 -105,733 -221,1099 -289,906 -1187,740 -1427,1191 -339,636 740,1010 397,2005 -141,411 -743,897 -319,1352 268,288 836,222 1202,777 242,366 172,629 231,1085 50,379 358,580 781,475 403,-99 689,-208 1110,-54 215,79 358,196 490,334l223 272c227,289 532,454 873,206 87,-63 234,-248 311,-349 903,-1181 1851,62 2374,-574 322,-391 -127,-1300 820,-1798 312,-163 683,-182 836,-484 87,-173 87,-351 -1,-523 -203,-400 -640,-748 -420,-1464 100,-323 382,-587 455,-852z"/>
 </g>
</svg>
