<svg width="144" height="24" viewBox="0 0 144 24" fill="none" xmlns="http://www.w3.org/2000/svg">
<path d="M12.4123 17.8781L17.1373 20.8781C17.7466 21.2625 18.4966 20.6906 18.3185 19.9875L16.9498 14.6063C16.9127 14.4571 16.9186 14.3005 16.9667 14.1546C17.0148 14.0086 17.1032 13.8792 17.2216 13.7813L21.4591 10.2469C22.0123 9.78752 21.731 8.8594 21.0091 8.81252L15.4779 8.45627C15.327 8.44749 15.1819 8.39494 15.0603 8.30503C14.9388 8.21513 14.8461 8.09177 14.7935 7.95002L12.731 2.75627C12.6764 2.60618 12.5769 2.47653 12.4461 2.38491C12.3153 2.29329 12.1595 2.24414 11.9998 2.24414C11.84 2.24414 11.6842 2.29329 11.5534 2.38491C11.4226 2.47653 11.3231 2.60618 11.2685 2.75627L9.206 7.95002C9.15344 8.09177 9.06072 8.21513 8.93918 8.30503C8.81764 8.39494 8.67255 8.44749 8.52163 8.45627L2.99038 8.81252C2.2685 8.8594 1.98725 9.78752 2.54038 10.2469L6.77788 13.7813C6.89632 13.8792 6.98468 14.0086 7.03278 14.1546C7.08088 14.3005 7.08676 14.4571 7.04975 14.6063L5.78413 19.5938C5.5685 20.4375 6.4685 21.1219 7.19038 20.6625L11.5873 17.8781C11.7105 17.7997 11.8536 17.7581 11.9998 17.7581C12.1459 17.7581 12.289 17.7997 12.4123 17.8781V17.8781Z" fill="#FFC27A"/>
<path d="M42.4123 17.8781L47.1373 20.8781C47.7466 21.2625 48.4966 20.6906 48.3185 19.9875L46.9498 14.6063C46.9127 14.4571 46.9186 14.3005 46.9667 14.1546C47.0148 14.0086 47.1032 13.8792 47.2216 13.7813L51.4591 10.2469C52.0123 9.78752 51.731 8.8594 51.0091 8.81252L45.4779 8.45627C45.327 8.44749 45.1819 8.39494 45.0603 8.30503C44.9388 8.21513 44.8461 8.09177 44.7935 7.95002L42.731 2.75627C42.6764 2.60618 42.5769 2.47653 42.4461 2.38491C42.3153 2.29329 42.1595 2.24414 41.9998 2.24414C41.84 2.24414 41.6842 2.29329 41.5534 2.38491C41.4226 2.47653 41.3231 2.60618 41.2685 2.75627L39.206 7.95002C39.1534 8.09177 39.0607 8.21513 38.9392 8.30503C38.8176 8.39494 38.6725 8.44749 38.5216 8.45627L32.9904 8.81252C32.2685 8.8594 31.9873 9.78752 32.5404 10.2469L36.7779 13.7813C36.8963 13.8792 36.9847 14.0086 37.0328 14.1546C37.0809 14.3005 37.0868 14.4571 37.0498 14.6063L35.7841 19.5938C35.5685 20.4375 36.4685 21.1219 37.1904 20.6625L41.5873 17.8781C41.7105 17.7997 41.8536 17.7581 41.9998 17.7581C42.1459 17.7581 42.289 17.7997 42.4123 17.8781V17.8781Z" fill="#FFC27A"/>
<path d="M72.4123 17.8781L77.1373 20.8781C77.7466 21.2625 78.4966 20.6906 78.3185 19.9875L76.9498 14.6063C76.9127 14.4571 76.9186 14.3005 76.9667 14.1546C77.0148 14.0086 77.1032 13.8792 77.2216 13.7813L81.4591 10.2469C82.0123 9.78752 81.731 8.8594 81.0091 8.81252L75.4779 8.45627C75.327 8.44749 75.1819 8.39494 75.0603 8.30503C74.9388 8.21513 74.8461 8.09177 74.7935 7.95002L72.731 2.75627C72.6764 2.60618 72.5769 2.47653 72.4461 2.38491C72.3153 2.29329 72.1595 2.24414 71.9998 2.24414C71.84 2.24414 71.6842 2.29329 71.5534 2.38491C71.4226 2.47653 71.3231 2.60618 71.2685 2.75627L69.206 7.95002C69.1534 8.09177 69.0607 8.21513 68.9392 8.30503C68.8176 8.39494 68.6725 8.44749 68.5216 8.45627L62.9904 8.81252C62.2685 8.8594 61.9873 9.78752 62.5404 10.2469L66.7779 13.7813C66.8963 13.8792 66.9847 14.0086 67.0328 14.1546C67.0809 14.3005 67.0868 14.4571 67.0498 14.6063L65.7841 19.5938C65.5685 20.4375 66.4685 21.1219 67.1904 20.6625L71.5873 17.8781C71.7105 17.7997 71.8536 17.7581 71.9998 17.7581C72.1459 17.7581 72.289 17.7997 72.4123 17.8781V17.8781Z" fill="#FFC27A"/>
<path d="M102.412 17.8781L107.137 20.8781C107.747 21.2625 108.497 20.6906 108.319 19.9875L106.95 14.6063C106.913 14.4571 106.919 14.3005 106.967 14.1546C107.015 14.0086 107.103 13.8792 107.222 13.7813L111.459 10.2469C112.012 9.78752 111.731 8.8594 111.009 8.81252L105.478 8.45627C105.327 8.44749 105.182 8.39494 105.06 8.30503C104.939 8.21513 104.846 8.09177 104.794 7.95002L102.731 2.75627C102.676 2.60618 102.577 2.47653 102.446 2.38491C102.315 2.29329 102.159 2.24414 102 2.24414C101.84 2.24414 101.684 2.29329 101.553 2.38491C101.423 2.47653 101.323 2.60618 101.269 2.75627L99.206 7.95002C99.1534 8.09177 99.0607 8.21513 98.9392 8.30503C98.8176 8.39494 98.6725 8.44749 98.5216 8.45627L92.9904 8.81252C92.2685 8.8594 91.9873 9.78752 92.5404 10.2469L96.7779 13.7813C96.8963 13.8792 96.9847 14.0086 97.0328 14.1546C97.0809 14.3005 97.0868 14.4571 97.0498 14.6063L95.7841 19.5938C95.5685 20.4375 96.4685 21.1219 97.1904 20.6625L101.587 17.8781C101.711 17.7997 101.854 17.7581 102 17.7581C102.146 17.7581 102.289 17.7997 102.412 17.8781Z" fill="#FFC27A"/>
<path d="M132.412 17.8781L137.137 20.8781C137.747 21.2625 138.497 20.6906 138.319 19.9875L136.95 14.6063C136.913 14.4571 136.919 14.3005 136.967 14.1546C137.015 14.0086 137.103 13.8792 137.222 13.7813L141.459 10.2469C142.012 9.78752 141.731 8.8594 141.009 8.81252L135.478 8.45627C135.327 8.44749 135.182 8.39494 135.06 8.30503C134.939 8.21513 134.846 8.09177 134.794 7.95002L132.731 2.75627C132.676 2.60618 132.577 2.47653 132.446 2.38491C132.315 2.29329 132.159 2.24414 132 2.24414C131.84 2.24414 131.684 2.29329 131.553 2.38491C131.423 2.47653 131.323 2.60618 131.269 2.75627L129.206 7.95002C129.153 8.09177 129.061 8.21513 128.939 8.30503C128.818 8.39494 128.673 8.44749 128.522 8.45627L122.99 8.81252C122.269 8.8594 121.987 9.78752 122.54 10.2469L126.778 13.7813C126.896 13.8792 126.985 14.0086 127.033 14.1546C127.081 14.3005 127.087 14.4571 127.05 14.6063L125.784 19.5938C125.569 20.4375 126.469 21.1219 127.19 20.6625L131.587 17.8781C131.711 17.7997 131.854 17.7581 132 17.7581C132.146 17.7581 132.289 17.7997 132.412 17.8781V17.8781Z" fill="#FFC27A"/>
</svg>
