<svg width="247" height="58" viewBox="0 0 247 58" fill="none" xmlns="http://www.w3.org/2000/svg">
<path d="M214.578 29C214.578 19.8283 221.551 13.3644 230.789 13.3644C240.028 13.3644 247 19.8283 247 29C247 38.1717 240.028 44.6354 230.789 44.6354C221.551 44.6354 214.578 38.0843 214.578 29ZM237.849 29C237.849 24.7199 235.147 21.5753 230.876 21.5753C226.605 21.5753 223.904 24.7199 223.904 29C223.904 33.2801 226.605 36.4247 230.876 36.4247C235.147 36.4247 237.849 33.3675 237.849 29ZM208.477 21.75C209.087 22.9729 209.349 24.2831 209.349 25.6807C209.349 29 207.606 32.0572 204.816 34.4157C208.652 36.25 210.917 40.7047 210.917 44.8976C210.917 52.7591 204.555 58 194.881 58C185.206 58 178.844 52.8465 178.844 44.8976C178.757 40.5303 181.11 36.5121 184.945 34.4157C182.069 32.0572 180.413 29 180.413 25.6807C180.413 18.7801 185.816 13.7139 194.358 13.7139C199.413 13.7139 200.894 14.5874 203.771 14.5874C205.688 14.6747 207.693 14.1506 209.349 13.1024C209.959 12.753 210.569 12.4909 211.266 12.4909C212.399 12.4909 213.009 13.6265 213.009 15.0241C213.271 18.0813 211.354 20.7892 208.477 21.75ZM201.941 44.6354C201.941 41.1417 199.239 38.6958 194.968 38.6958C190.697 38.6958 187.995 41.0543 187.995 44.6354C187.995 47.9547 190.959 50.5752 194.968 50.5752C198.977 50.5752 201.941 47.9547 201.941 44.6354ZM189.303 26.2048C189.39 29.2621 192.005 31.7078 195.142 31.6205C198.106 31.5331 200.372 29.1747 200.546 26.2048C200.546 23.0602 198.28 20.8765 194.968 20.8765C191.656 20.8765 189.303 22.9729 189.303 26.2048ZM174.661 29.6115V40.5303C174.661 42.6264 173.876 43.5 171.61 43.5H168.56C166.294 43.5 165.509 42.6264 165.509 40.5303V29.8735C165.509 27.1657 165.074 25.244 164.115 24.0211C162.982 22.6235 161.239 21.9247 159.495 22.012C157.665 21.9247 155.922 22.7108 154.702 24.0211C153.656 25.244 152.959 27.1657 152.959 29.7861V40.4429C152.959 42.6264 152 43.4126 149.908 43.4126H146.858C144.766 43.4126 143.807 42.6264 143.807 40.4429V15.9849C143.807 14.5874 144.505 13.9759 145.551 13.9759C147.119 13.9759 149.298 15.2861 150.954 17.8193C153.482 15.0241 157.055 13.4518 160.803 13.4518C165.248 13.4518 168.821 15.0241 171.175 17.6446C173.528 20.2651 174.661 23.8464 174.661 29.6115ZM127.074 4.9789C127.074 2.18374 129.427 0 132.128 0C132.216 0 132.216 0 132.303 0C135.005 0.174699 137.097 2.53313 136.922 5.24094C136.748 7.94878 134.395 10.0452 131.693 9.87047C129.078 9.78315 127.074 7.59941 127.074 4.9789ZM127.684 40.5303V17.5572C127.684 15.4608 128.468 14.5 130.734 14.5H133.785C136.051 14.5 136.835 15.3735 136.835 17.5572V40.5303C136.835 42.6264 136.051 43.5 133.785 43.5H130.734C128.468 43.5 127.684 42.6264 127.684 40.5303ZM111.56 40.5303V11.7048C111.56 4.4548 115.569 0.349398 118.968 0.349398C120.014 0.349398 120.711 1.04819 120.711 2.35843V40.5303C120.711 42.7138 119.84 43.5 117.661 43.5H114.61C112.518 43.5 111.56 42.7138 111.56 40.5303ZM73.9085 29C73.9085 19.8283 80.8808 13.3644 90.1193 13.3644C99.3579 13.3644 106.33 19.8283 106.33 29C106.33 38.1717 99.3579 44.6354 90.1193 44.6354C80.8808 44.6354 73.9085 38.0843 73.9085 29ZM97.0917 29C97.0917 24.7199 94.3898 21.5753 90.1193 21.5753C85.8485 21.5753 83.147 24.7199 83.147 29C83.147 33.2801 85.8485 36.4247 90.1193 36.4247C94.3898 36.4247 97.0917 33.3675 97.0917 29ZM69.202 17.5572V42.015C69.202 43.4126 68.5047 44.024 67.4586 44.024C65.89 44.024 63.711 42.7138 62.142 40.2681C59.7018 43.0634 56.2158 44.6354 52.4678 44.548C48.9819 44.6354 45.6699 43.4126 43.0553 41.0543C40.3534 38.4337 38.8716 34.4157 38.8716 28.6506V17.5572C38.8716 15.4608 39.656 14.5 41.9219 14.5H44.9727C47.2385 14.5 48.023 15.3735 48.023 17.5572V27.8645C48.023 31.3584 48.633 33.1928 49.766 34.4157C50.8121 35.4639 52.3806 36.0753 53.8624 35.988C55.5186 35.988 57.0871 35.3765 58.22 34.1536C59.3534 32.9307 59.9634 31.009 59.9634 28.0392V17.5572C59.9634 15.3735 60.9219 14.5 63.0137 14.5H66.0645C68.2431 14.5 69.202 15.3735 69.202 17.5572ZM32.5963 2.35843V42.015C32.5963 43.4126 31.8991 44.024 30.8532 44.024C29.2844 44.024 27.1055 42.7138 25.5367 40.3555C23.6193 42.6264 19.6972 44.6354 15.1651 44.6354C6.10091 44.6354 0 37.997 0 29C0 20.003 6.27525 13.3644 15.1651 13.3644C18.1284 13.3644 21.0046 14.238 23.5321 15.8976V11.7048C23.5321 4.4548 27.6285 0.349398 30.9404 0.349398C31.9863 0.349398 32.5963 1.04819 32.5963 2.35843ZM23.5321 29C23.5321 24.5452 20.3945 21.5753 16.4725 21.5753C12.5505 21.5753 9.32569 24.5452 9.32569 29C9.32569 33.4548 12.4633 36.4247 16.4725 36.4247C20.4816 36.4247 23.5321 33.5422 23.5321 29Z" fill="black" fill-opacity="0.4"/>
</svg>
