<svg width="226" height="58" viewBox="0 0 226 58" fill="none" xmlns="http://www.w3.org/2000/svg">
<path fill-rule="evenodd" clip-rule="evenodd" d="M98.4067 38.5023V8.96547C98.4067 4.03301 94.4015 0 89.4392 0H8.96712C4.03376 0 0 4.004 0 8.96547V38.5023C0 43.4348 4.00474 47.4678 8.96712 47.4678H67.2388L83.0258 58L79.8626 47.4678H89.4972C94.4015 47.4388 98.4353 43.4348 98.4067 38.5023ZM17.0056 29.6818C17.47 30.4943 18.0794 31.1325 18.8629 31.5388C19.6464 31.974 20.488 32.1771 21.4457 32.1771C22.4033 32.1771 23.2739 31.945 24.0575 31.5098C24.841 31.0455 25.4794 30.4072 25.9147 29.5948C26.379 28.7534 26.6112 27.8249 26.6112 26.7514V13.4917C26.6112 13.2886 26.6692 13.1436 26.7853 13.0275C26.9014 12.9114 27.0465 12.8534 27.2496 12.8534H30.4708C30.674 12.8534 30.8481 12.9114 30.9642 13.0275C31.0222 13.0855 31.0803 13.1726 31.1093 13.2306C31.1383 13.3176 31.1673 13.4047 31.1383 13.4917V26.7224C31.1383 28.8404 30.703 30.6103 29.8324 32.061C28.9618 33.4828 27.801 34.5563 26.35 35.2236C24.899 35.92 23.2449 36.2391 21.4457 36.2391C19.6465 36.2391 18.0213 35.891 16.5413 35.1946C15.0613 34.4982 13.9005 33.4247 13.0299 32.003C12.1593 30.5813 11.724 28.8114 11.724 26.6933V13.4917C11.724 13.3176 11.7821 13.1726 11.8982 13.0565C11.9562 12.9985 12.0142 12.9405 12.0723 12.9114C12.1303 12.8824 12.2174 12.8534 12.3044 12.8534H15.6997C15.9029 12.8534 16.077 12.9114 16.1641 13.0275C16.2511 13.1436 16.3091 13.2886 16.3091 13.4917V26.7514C16.3091 27.8829 16.5413 28.8694 17.0056 29.6818ZM34.1854 31.974C34.1854 32.061 34.2144 32.1771 34.2434 32.2641C34.3015 32.3802 34.3595 32.4962 34.4175 32.6123C35.143 33.7439 36.1297 34.6433 37.3486 35.2816C38.5674 35.92 39.9603 36.2391 41.4986 36.2391C42.7172 36.2391 43.9068 36.007 45.0389 35.5718C46.1705 35.1076 47.07 34.4402 47.7956 33.5118C48.4921 32.6123 48.8406 31.5098 48.8406 30.2041C48.8406 28.8404 48.4051 27.5928 47.5345 26.5193C46.664 25.4167 45.3579 24.6333 43.5878 24.082C43.3557 23.995 43.1527 23.937 42.9493 23.8789C42.7462 23.8209 42.5722 23.7629 42.4272 23.7339C41.5566 23.5018 40.9181 23.2986 40.5116 23.1246C40.1055 22.9505 39.7572 22.7474 39.5251 22.5153C39.2639 22.2541 39.1478 21.935 39.1478 21.4998C39.1478 20.9485 39.38 20.5133 39.8442 20.1651C40.3086 19.8169 40.9471 19.6428 41.7596 19.6428C42.5432 19.6428 43.1817 19.7879 43.7038 20.049C44.2263 20.3102 44.7194 20.7454 45.2129 21.2966C45.3869 21.4998 45.5324 21.6158 45.7064 21.6158C45.8224 21.6158 45.9674 21.5578 46.1125 21.4127L47.9406 19.9039C48.144 19.7299 48.2601 19.5848 48.2601 19.4397C48.2601 19.3237 48.173 19.1496 48.028 18.9175C47.3315 18.047 46.4609 17.2927 45.4159 16.7123C44.3713 16.1031 43.1237 15.8129 41.6436 15.8129C40.2796 15.8129 39.0897 16.0741 38.045 16.6253C37.0003 17.1766 36.2168 17.8729 35.6364 18.7434C35.085 19.6138 34.7948 20.4842 34.7948 21.3837C34.7948 22.4862 34.9979 23.4437 35.4333 24.2271C35.8685 25.0105 36.507 25.6778 37.3776 26.2291C38.2482 26.7804 39.38 27.2737 40.8021 27.7089C41.4112 27.8829 41.7886 27.999 41.8757 28.028C42.5722 28.2311 43.0943 28.4052 43.4138 28.5503C43.7618 28.6953 44.0233 28.8694 44.1973 29.1306C44.4003 29.3917 44.4874 29.7399 44.4874 30.2041C44.4874 30.6393 44.3133 31.0455 43.9943 31.3937C43.6458 31.7419 43.2397 32.003 42.7172 32.2061C42.2237 32.3802 41.6726 32.4962 41.1501 32.4962C40.2796 32.4962 39.5541 32.2932 38.9737 31.887C38.3933 31.4808 37.8419 30.9295 37.3486 30.2331C37.1744 30.001 37.0003 29.8849 36.7972 29.8849C36.6811 29.8849 36.565 29.943 36.4489 30.001L34.4466 31.4227C34.2724 31.5968 34.1854 31.7709 34.1854 31.974ZM66.9488 30.3201C67.1228 30.3201 67.2388 30.3782 67.3262 30.5233L68.9223 32.4672C69.0384 32.6413 69.1254 32.7864 69.1254 32.9315C69.1254 33.1056 69.0384 33.2506 68.8933 33.3957C67.7323 34.4112 66.6007 35.1366 65.4397 35.6008C64.3081 36.036 63.06 36.2681 61.7544 36.2681C59.9839 36.2681 58.3008 35.8039 56.7337 34.9044C55.1666 33.976 53.9189 32.7574 52.9904 31.1906C52.0618 29.6238 51.5973 27.941 51.5973 26.113C51.5973 24.2561 52.0328 22.5443 52.9033 21.0065C53.7739 19.4397 54.9635 18.2211 56.5016 17.2927C58.0397 16.3642 59.7518 15.929 61.638 15.929C63.1761 15.929 64.6851 16.3061 66.1942 17.0605C67.7033 17.8149 68.9514 18.9465 69.9379 20.4842C70.9245 22.022 71.418 23.908 71.418 26.1421C71.418 26.6353 71.36 27.0125 71.2436 27.2446C71.1276 27.4767 70.9535 27.6218 70.7795 27.6508C70.5765 27.7089 70.257 27.7379 69.8509 27.7089H55.9211C56.1245 28.6373 56.5306 29.4497 57.0821 30.1461C57.6336 30.8424 58.3298 31.3937 59.1423 31.7709C59.9549 32.1481 60.8254 32.3512 61.7544 32.3512C62.4799 32.3512 63.0891 32.2641 63.6406 32.1191C64.1631 31.974 64.5981 31.7999 64.9466 31.5968C65.3527 31.3647 65.7301 31.1035 66.0782 30.8134L66.5427 30.4652C66.6877 30.3492 66.8328 30.3201 66.9488 30.3201ZM59.2587 20.2521C58.5042 20.6293 57.8657 21.1516 57.3142 21.7899C56.7627 22.4282 56.3566 23.1536 56.0665 23.966H67.1228C66.6587 22.6894 65.9332 21.6448 64.9756 20.8614C64.0176 20.078 62.886 19.7009 61.638 19.7009C60.8254 19.6718 60.0129 19.8749 59.2587 20.2521ZM77.8604 16.0741H75.6258C75.2193 16.0741 75.0163 16.3061 75.0163 16.7414V35.2526C75.0163 35.6878 75.2193 35.891 75.6258 35.891H78.818C79.2531 35.891 79.4565 35.6878 79.4565 35.2526V24.4012C79.4565 23.4147 79.6306 22.6023 80.0076 21.935C80.3851 21.2676 80.8492 20.7744 81.4587 20.4552C82.0392 20.1361 82.6777 19.962 83.3449 19.962C84.0124 19.962 84.6219 20.078 85.2024 20.3102C85.7825 20.5713 86.334 20.8614 86.8565 21.2096C87.0305 21.3257 87.2046 21.4127 87.3496 21.4127C87.524 21.4127 87.6401 21.3257 87.7851 21.1516L89.2362 19.0915C89.3522 18.9465 89.4102 18.8014 89.4102 18.6563C89.4102 18.4532 89.2942 18.2501 89.0621 18.018C88.4816 17.5248 87.7271 17.0315 86.7985 16.5673C85.8989 16.1031 84.9119 15.8709 83.8383 15.8709C82.8518 15.8709 81.9522 16.1031 81.1396 16.5673C80.3271 17.0315 79.6596 17.6698 79.1371 18.5113L78.818 16.7994C78.76 16.4803 78.673 16.2771 78.4985 16.1901C78.3535 16.1031 78.1505 16.0741 77.8604 16.0741Z" fill="black" fill-opacity="0.4"/>
<path d="M104.123 12.8535H120.722C121.128 12.8535 121.332 13.0566 121.332 13.4628V16.3933C121.332 16.7995 121.128 17.0316 120.722 17.0316H114.599V35.2817C114.599 35.688 114.396 35.891 113.99 35.891H110.652C110.246 35.891 110.043 35.688 110.043 35.2817V17.0026H104.094C103.688 17.0026 103.484 16.7995 103.484 16.3643V13.4628C103.513 13.0566 103.717 12.8535 104.123 12.8535Z" fill="black" fill-opacity="0.4"/>
<path d="M136.161 30.3204C136.335 30.3204 136.451 30.3784 136.538 30.5235L138.134 32.4675C138.25 32.6416 138.337 32.7866 138.337 32.9317C138.337 33.1058 138.25 33.2509 138.105 33.3959C136.945 34.4115 135.813 35.1368 134.652 35.601C133.491 36.0653 132.272 36.2684 130.966 36.2684C129.196 36.2684 127.513 35.8041 125.946 34.9047C124.379 33.9762 123.131 32.7576 122.202 31.1908C121.274 29.624 120.81 27.9412 120.81 26.1133C120.81 24.2564 121.245 22.5445 122.115 21.0067C122.986 19.44 124.176 18.2214 125.714 17.2929C127.252 16.3644 128.964 15.9292 130.85 15.9292C132.388 15.9292 133.926 16.3064 135.407 17.0608C136.916 17.8152 138.163 18.9467 139.15 20.4845C140.137 22.0223 140.63 23.9082 140.63 26.1423C140.63 26.6356 140.572 27.0128 140.456 27.2449C140.34 27.477 140.166 27.622 139.992 27.6511C139.788 27.7091 139.469 27.7381 139.063 27.7381H125.162C125.365 28.6666 125.772 29.479 126.323 30.1753C126.875 30.8717 127.571 31.423 128.384 31.8001C129.196 32.1773 130.067 32.3804 131.024 32.3804C131.75 32.3804 132.359 32.2934 132.911 32.1483C133.433 32.0033 133.868 31.8292 134.216 31.6261C134.623 31.3939 135 31.1328 135.349 30.8427L135.813 30.4945C135.871 30.3494 136.016 30.3204 136.161 30.3204ZM128.442 20.2524C127.687 20.6296 127.049 21.1518 126.497 21.7901C125.946 22.4285 125.54 23.1538 125.249 23.9662H136.335C135.871 22.6896 135.145 21.6451 134.187 20.8617C133.23 20.0783 132.098 19.7011 130.821 19.7011C130.009 19.6721 129.167 19.8752 128.442 20.2524Z" fill="black" fill-opacity="0.4"/>
<path d="M141.965 32.2638C141.936 32.1768 141.907 32.0608 141.907 31.9737C141.907 31.7706 141.994 31.5965 142.169 31.4224L144.142 29.9137C144.229 29.8266 144.345 29.7686 144.49 29.7976C144.693 29.7976 144.896 29.9137 145.041 30.1458C145.535 30.8421 146.086 31.3934 146.667 31.7996C147.247 32.2058 147.973 32.4089 148.843 32.4089C149.395 32.4089 149.917 32.3219 150.41 32.1188C150.933 31.9157 151.368 31.6545 151.687 31.3064C152.006 30.9582 152.18 30.552 152.18 30.1168C152.18 29.6526 152.093 29.3044 151.89 29.0432C151.687 28.7821 151.426 28.608 151.107 28.463C150.787 28.3179 150.265 28.1438 149.569 27.9407C149.453 27.9117 149.104 27.8246 148.495 27.6215C147.073 27.1863 145.941 26.6931 145.07 26.1418C144.2 25.5905 143.561 24.9232 143.126 24.1398C142.691 23.3564 142.488 22.3989 142.488 21.2964C142.488 20.3969 142.778 19.5265 143.329 18.656C143.881 17.7856 144.693 17.0893 145.738 16.538C146.783 15.9867 147.973 15.7256 149.337 15.7256C150.787 15.7256 152.064 16.0157 153.109 16.625C154.154 17.2343 155.024 17.9597 155.721 18.8301C155.895 19.0332 155.953 19.2073 155.953 19.3524C155.953 19.4975 155.837 19.6716 155.634 19.8166L153.805 21.3254C153.631 21.4414 153.515 21.5285 153.399 21.5285C153.254 21.5285 153.08 21.4124 152.906 21.2093C152.441 20.658 151.919 20.2518 151.397 19.9617C150.874 19.7006 150.207 19.5555 149.453 19.5555C148.64 19.5555 148.002 19.7296 147.537 20.0778C147.073 20.4259 146.841 20.8611 146.841 21.4124C146.841 21.8476 146.957 22.1668 147.218 22.4279C147.479 22.6891 147.799 22.8922 148.205 23.0372C148.611 23.2113 149.278 23.3854 150.12 23.6465C150.294 23.6755 150.468 23.7336 150.642 23.7916C150.845 23.8497 151.049 23.9077 151.281 23.9947C153.051 24.517 154.357 25.3294 155.228 26.4319C156.098 27.5345 156.533 28.7531 156.533 30.1168C156.533 31.3934 156.185 32.496 155.489 33.4244C154.792 34.3239 153.863 35.0202 152.732 35.4845C151.6 35.9487 150.41 36.1808 149.191 36.1518C147.653 36.1518 146.26 35.8326 145.041 35.1943C143.823 34.556 142.865 33.6565 142.111 32.525C142.082 32.496 142.024 32.3799 141.965 32.2638Z" fill="black" fill-opacity="0.4"/>
<path d="M167.183 16.2198C167.619 16.2198 167.851 16.4519 167.851 16.8871V19.4404C167.851 19.6435 167.793 19.8176 167.648 19.9336C167.503 20.0497 167.329 20.1077 167.125 20.1077H164.891V29.7696C164.891 30.4659 165.007 31.0172 165.268 31.4524C165.529 31.8586 165.965 32.0907 166.574 32.1197L167.067 32.1487C167.416 32.1777 167.648 32.2648 167.735 32.4389C167.822 32.613 167.88 32.8161 167.851 33.0192V35.2243C167.851 35.7465 167.445 36.0077 166.661 36.0077C165.442 36.0077 164.369 35.7755 163.44 35.3113C162.483 34.8471 161.757 34.1797 161.235 33.3093C160.712 32.4389 160.451 31.4234 160.451 30.2628V20.1367H158.652C158.478 20.1367 158.303 20.0787 158.187 19.9627C158.042 19.8466 157.984 19.6725 157.984 19.4694V16.9451C157.984 16.713 158.042 16.5389 158.187 16.3938C158.303 16.2778 158.478 16.2198 158.652 16.2198H160.451V12.9701C160.451 12.738 160.48 12.5929 160.567 12.4769C160.654 12.3608 160.829 12.3028 161.061 12.2158L164.224 11.2873C164.282 11.2583 164.34 11.2583 164.398 11.2583C164.456 11.2583 164.543 11.2873 164.601 11.3163C164.659 11.3453 164.717 11.4034 164.746 11.4614C164.833 11.5775 164.862 11.7515 164.862 11.9546V16.1908L167.183 16.2198Z" fill="black" fill-opacity="0.4"/>
<path d="M172.088 8.99463H174.787C175.367 8.99463 175.657 9.31379 175.657 9.98115V12.7085C175.657 13.0276 175.599 13.2598 175.454 13.3758C175.309 13.4919 175.077 13.5789 174.787 13.5789H172.088C171.449 13.5789 171.13 13.2888 171.13 12.7085V9.98115C171.13 9.31379 171.449 8.99463 172.088 8.99463ZM171.449 16.2483C171.565 16.1322 171.71 16.0742 171.884 16.0742H175.164C175.338 16.0742 175.483 16.1322 175.599 16.2483C175.715 16.3643 175.773 16.5094 175.773 16.7125V35.2528C175.773 35.659 175.57 35.8911 175.164 35.8911H171.884C171.478 35.8911 171.275 35.688 171.275 35.2528V16.7125C171.275 16.5094 171.333 16.3643 171.449 16.2483Z" fill="black" fill-opacity="0.4"/>
<path d="M183.434 35.7173C183.26 35.8333 183.028 35.8914 182.825 35.8914H179.981C179.546 35.8914 179.313 35.6593 179.313 35.224V16.7128C179.313 16.2776 179.546 16.0454 179.981 16.0454H182.071C182.274 16.0454 182.506 16.1325 182.651 16.2776C182.825 16.4226 182.941 16.6258 182.999 16.8288L183.26 19.063C184.015 17.9894 184.914 17.206 185.988 16.6838C187.062 16.1615 188.223 15.9004 189.413 15.9004C190.602 15.9004 191.763 16.1905 192.895 16.7998C194.027 17.4091 194.955 18.3376 195.71 19.5852C196.435 20.8328 196.813 22.3996 196.813 24.2565V35.195C196.813 35.6303 196.61 35.8333 196.203 35.8333H193.098C192.663 35.8333 192.431 35.6303 192.431 35.195V24.4016C192.431 23.6473 192.256 22.9509 191.879 22.2836C191.502 21.6163 190.98 21.065 190.341 20.6588C189.674 20.2526 188.948 20.0494 188.136 20.0494C187.439 20.0494 186.743 20.2235 186.075 20.6007C185.379 20.9779 184.827 21.5002 184.392 22.1965C183.957 22.8929 183.725 23.7053 183.725 24.6047V35.166C183.696 35.4271 183.609 35.5722 183.434 35.7173Z" fill="black" fill-opacity="0.4"/>
<path d="M218.346 37.7477C217.475 39.3145 216.315 40.504 214.805 41.3164C213.296 42.1288 211.555 42.5062 209.611 42.5062C208.305 42.5062 207.028 42.2738 205.78 41.8388C204.503 41.4034 203.43 40.7944 202.53 40.0398C202.356 39.8947 202.269 39.7497 202.269 39.5756C202.269 39.4595 202.327 39.3145 202.472 39.1114L203.778 37.2254C203.923 37.0223 204.097 36.9062 204.329 36.9062C204.503 36.9062 204.677 36.9643 204.88 37.1094C206.244 38.0669 207.928 38.531 209.988 38.531C211.033 38.531 211.961 38.299 212.774 37.8347C213.586 37.3995 214.254 36.7322 214.689 35.9198C215.154 35.1074 215.386 34.1789 215.386 33.1344V33.0764C214.515 34.0048 213.586 34.7012 212.629 35.1654C211.671 35.6296 210.539 35.8617 209.263 35.8617C207.551 35.8617 205.925 35.4555 204.445 34.5851C202.936 33.7437 201.747 32.5541 200.847 31.0453C199.947 29.5366 199.483 27.8247 199.512 25.9098C199.512 24.1108 199.947 22.428 200.847 20.8902C201.747 19.3525 202.936 18.1049 204.445 17.1764C205.954 16.2479 207.551 15.7837 209.263 15.7837C211.729 15.7837 213.848 16.7412 215.618 18.6271L215.879 16.7992C215.908 16.5091 215.995 16.3059 216.111 16.1899C216.228 16.0739 216.402 16.0158 216.634 16.0158H219.129C219.507 16.0158 219.71 16.2479 219.71 16.6831V31.9157C219.623 34.2659 219.187 36.1809 218.346 37.7477ZM214.689 22.9213C214.167 21.9928 213.47 21.2384 212.571 20.6871C211.671 20.1359 210.685 19.8457 209.553 19.8457C208.392 19.8457 207.377 20.1359 206.477 20.6871C205.577 21.2384 204.909 21.9928 204.387 22.9503C203.894 23.9078 203.633 24.9232 203.633 26.0548C203.633 27.2444 203.894 28.2889 204.416 29.2174C204.939 30.1459 205.664 30.8712 206.564 31.3935C207.464 31.9157 208.479 32.1769 209.582 32.1769C210.685 32.1769 211.671 31.9157 212.542 31.3645C213.412 30.8132 214.109 30.0588 214.631 29.1304C215.125 28.1729 215.386 27.1574 215.386 26.0548C215.444 24.8942 215.183 23.8497 214.689 22.9213Z" fill="black" fill-opacity="0.4"/>
<path d="M223.395 16.0742C222.147 16.0742 221.132 17.0897 221.132 18.3373C221.132 19.585 222.147 20.6005 223.395 20.6005C224.643 20.6005 225.659 19.585 225.659 18.3373C225.659 17.1187 224.643 16.0742 223.395 16.0742ZM223.395 20.1362C222.437 20.1362 221.625 19.3238 221.625 18.3373C221.625 17.3509 222.437 16.5385 223.395 16.5385C224.353 16.5385 225.166 17.3219 225.166 18.3373C225.166 19.3238 224.353 20.1362 223.395 20.1362Z" fill="black" fill-opacity="0.4"/>
<path d="M222.524 17.1188C222.524 17.1188 222.553 17.0898 222.582 17.0898H223.627C223.772 17.0898 223.917 17.1188 224.033 17.2059C224.149 17.2929 224.236 17.38 224.323 17.496C224.381 17.6121 224.439 17.7572 224.439 17.9022C224.439 18.0473 224.41 18.1634 224.323 18.3084C224.236 18.4245 224.149 18.5406 224.004 18.5986L224.468 19.4981V19.5271V19.5561H224.439H224.004C223.975 19.5561 223.975 19.5561 223.946 19.5561C223.946 19.5561 223.917 19.5271 223.917 19.4981L223.511 18.6857H223.017V19.469C223.017 19.5271 222.988 19.5271 222.959 19.5271H222.611C222.553 19.5271 222.553 19.4981 222.553 19.469V17.1188C222.495 17.1479 222.495 17.1188 222.524 17.1188ZM222.988 18.3084H223.511C223.598 18.3084 223.656 18.2794 223.714 18.2504C223.772 18.2214 223.83 18.1634 223.859 18.1053C223.888 18.0473 223.917 17.9893 223.917 17.9022C223.917 17.8442 223.888 17.7572 223.859 17.6991C223.83 17.6411 223.772 17.5831 223.714 17.5541C223.656 17.525 223.598 17.496 223.511 17.496H222.988V18.3084Z" fill="black" fill-opacity="0.4"/>
</svg>
