<svg width="377" height="58" viewBox="0 0 377 58" fill="none" xmlns="http://www.w3.org/2000/svg">
<path d="M160.539 37.115C156.706 37.115 152.622 34.4729 152.622 28.6226C152.622 22.7722 156.706 20.1301 160.539 20.1301C164.372 20.1301 168.456 22.7722 168.456 28.6226C168.456 34.4729 164.372 37.115 160.539 37.115ZM174.676 28.6855C174.676 19.5011 167.828 14.0911 160.162 14.0911C152.496 14.0911 146.276 20.1301 146.276 28.6855C146.276 36.8633 151.994 42.8394 159.283 43.2797C160.413 43.3429 165.378 43.2797 169.273 39.128H169.399L173.923 43.2797H174.802V28.9371C174.74 28.9371 174.676 28.6855 174.676 28.6855ZM216.838 0.0629107C219.1 0.0629107 220.922 1.88721 220.922 4.15183C220.922 6.41649 219.1 8.24079 216.838 8.24079C214.702 8.24079 212.879 6.41649 212.879 4.15183C212.879 1.88721 214.639 0.0629107 216.838 0.0629107ZM213.947 43.2797H219.854V14.154H213.947V43.2797ZM246.244 33.2147C244.799 35.9198 242.034 37.1779 239.395 37.1779C235.562 37.1779 231.478 34.5358 231.478 28.6855C231.478 22.8351 235.562 20.1931 239.395 20.1931C242.034 20.1931 244.799 21.4512 246.244 24.0933L251.71 20.885C249.197 16.4816 244.61 13.9653 239.395 13.9653C231.729 13.9653 225.132 19.6898 225.132 28.5597C225.132 37.4924 231.667 43.2168 239.395 43.2168C244.61 43.2168 249.197 40.7007 251.71 36.2972L246.244 33.2147ZM128.934 13.525C126.672 13.525 124.473 14.154 122.714 15.2234C121.96 15.7267 120.451 16.859 119.823 17.9913H119.697C119.069 16.859 117.561 15.7267 116.807 15.2234C114.985 14.0911 112.849 13.525 110.587 13.525C103.801 13.525 98.2714 19.1866 98.2714 26.1063V43.0284H104.555V26.1063C104.555 22.7093 107.257 19.8785 110.65 19.8785C113.979 19.8785 116.744 22.6464 116.744 26.1063V43.0284H122.965V26.1063C122.965 22.7093 125.667 19.8785 129.06 19.8785C132.39 19.8785 135.155 22.6464 135.155 26.1063V43.0284H141.438V26.1063C141.25 19.1236 135.72 13.525 128.934 13.525ZM278.289 43.0284C272.257 43.0284 267.419 39.2538 267.419 32.2712V6.16488H273.514V31.7679C273.514 35.1648 275.399 36.8633 278.289 36.8633V43.0284ZM362.737 37.5553C358.904 37.5553 354.82 34.9132 354.82 29.0629C354.82 23.2126 358.904 20.5705 362.737 20.5705C366.57 20.5705 370.654 23.2126 370.654 29.0629C370.591 34.9132 366.507 37.5553 362.737 37.5553ZM377 29C377 20.1301 370.465 14.4057 362.737 14.4057C355.386 14.4057 349.039 19.6269 348.474 27.7419V57.8743H354.38V39.5054C356.831 43.0912 361.606 43.5314 363.177 43.5943H363.742H363.68C370.403 43.4686 377 37.9328 377 29ZM328.807 37.4924C324.974 37.4924 320.89 34.8503 320.89 29C320.89 23.1497 324.974 20.5076 328.807 20.5076C332.64 20.5076 336.724 23.1497 336.724 29C336.661 34.9132 332.577 37.4924 328.807 37.4924ZM342.881 29C342.881 19.8156 336.033 14.4057 328.367 14.4057C320.701 14.4057 314.481 20.4447 314.481 29C314.481 37.3037 320.324 43.2169 327.676 43.5943H328.241C329.121 43.5943 330.566 43.4686 332.263 42.8394C332.703 42.7138 333.08 42.462 333.519 42.2731C334.713 41.6444 335.97 40.7635 337.101 39.5054H337.227L342.002 43.5314H342.881V29ZM295.945 20.3189C299.778 20.3189 302.542 22.5835 303.674 25.666H288.342C289.473 22.4577 292.238 20.3189 295.945 20.3189ZM302.605 34.0325C301.16 36.1085 298.772 37.3666 295.945 37.3666C291.61 37.3666 288.656 34.5987 287.902 30.9501H310.145C310.208 30.321 310.271 29.6291 310.271 29C310.271 20.9479 303.862 14.3428 295.945 14.3428C288.028 14.3428 281.619 20.9479 281.619 29C281.619 37.0521 288.028 43.6571 295.945 43.6571C301.223 43.6571 305.747 40.7635 308.26 36.4859L302.605 34.0325ZM193.589 37.1779C189.757 37.1779 185.672 34.5358 185.672 28.6855C185.672 22.8351 189.757 20.1931 193.589 20.1931C197.422 20.1931 201.569 22.8351 201.569 28.6855C201.632 34.5987 197.485 37.1779 193.589 37.1779ZM207.853 28.6226C207.853 19.7527 201.255 14.154 193.589 14.154C185.924 14.154 179.326 19.8785 179.326 28.7484C179.326 37.6811 185.924 43.4058 193.15 43.4058H193.966C196.354 43.154 198.679 42.2103 200.501 40.575L200.878 40.1974C201.318 39.6942 201.632 39.0651 201.758 38.4989V42.9023C201.758 42.9023 201.883 46.1736 199.747 48.6898C198.239 50.5772 195.852 51.5205 193.652 51.5205C190.825 51.5205 187.746 50.0109 186.427 46.8656L180.583 49.3189C182.845 54.5401 187.872 57.6854 193.527 57.6854C201.255 57.6854 207.79 51.9612 207.79 43.0912L207.853 28.6226ZM68.1111 21.577C64.9068 9.18438 53.8481 0 40.716 0C27.5838 0 16.5252 9.18438 13.3207 21.577C6.78601 27.3644 2.13633 34.9761 0 43.4058C4.64967 41.7701 9.42499 40.449 14.326 39.5683C18.473 50.3883 28.7149 58 40.716 58C52.78 58 63.0219 50.3883 67.1062 39.5683C72.3841 40.575 77.1595 41.8329 81.432 43.4058C79.2957 34.9761 74.6458 27.3644 68.1111 21.577ZM31.9822 21.0737C30.7255 25.1627 27.0183 27.5531 23.751 26.4837C20.4208 25.4143 18.7872 21.3254 19.981 17.2365C21.1748 13.1475 24.9448 10.7571 28.2122 11.8265C31.4795 12.833 33.176 17.0477 31.9822 21.0737ZM57.5554 26.4837C54.2251 27.5531 50.581 25.0998 49.3242 21.0737C48.0674 16.9848 49.7639 12.8959 53.0942 11.8265C56.4245 10.7571 60.0686 13.2104 61.3254 17.2365C62.645 21.3254 60.9485 25.4143 57.5554 26.4837Z" fill="black" fill-opacity="0.4"/>
</svg>
