<svg width="300" height="58" viewBox="0 0 300 58" fill="none" xmlns="http://www.w3.org/2000/svg">
<path d="M95.7796 14.6487C100.086 14.6487 103.531 16.0832 106.402 19.0476L106.594 19.2389L110.422 15.5094L110.326 15.3181C106.881 11.4929 101.617 9.38907 95.5883 9.38907C83.7218 9.38907 75.0132 17.6132 75.0132 28.9932C75.0132 40.3732 83.626 48.5972 95.4924 48.5972C101.522 48.5972 106.785 46.4934 110.326 42.5724L110.422 42.3811L106.594 38.6517L106.402 38.843C103.531 41.8075 99.9903 43.3377 95.7796 43.3377C87.1668 43.3377 80.9466 37.3129 80.9466 28.9932C80.9466 20.6734 87.2627 14.6487 95.7796 14.6487ZM126.786 43.6245C121.14 43.6245 117.216 39.5124 117.216 33.7746C117.216 27.9412 121.14 23.9248 126.786 23.9248C132.432 23.9248 136.356 27.9412 136.356 33.7746C136.356 39.608 132.432 43.6245 126.786 43.6245ZM126.786 18.952C117.886 18.952 111.474 25.168 111.474 33.7746C111.474 42.3811 117.886 48.5972 126.786 48.5972C135.686 48.5972 142.098 42.3811 142.098 33.7746C142.098 25.168 135.59 18.952 126.786 18.952ZM159.323 43.6245C153.677 43.6245 149.658 39.5124 149.658 33.679C149.658 27.8456 153.581 23.7335 159.323 23.7335C164.97 23.7335 168.893 27.8456 168.893 33.679C168.893 39.5124 164.97 43.6245 159.323 43.6245ZM168.893 22.9685C166.501 20.1952 163.056 18.7608 158.941 18.7608C150.136 18.7608 144.012 24.8811 144.012 33.679C144.012 42.4769 150.136 48.5972 158.941 48.5972C163.152 48.5972 166.788 46.9715 169.085 44.1026V48.2145H174.54V7.47648H168.797L168.893 22.9685ZM192.913 23.7335C197.603 23.7335 201.144 26.8893 201.813 31.4795H184.109C184.684 26.8893 188.129 23.7335 192.913 23.7335ZM192.913 18.952C184.492 18.952 178.463 25.168 178.463 33.7746C178.463 42.4769 184.779 48.5972 193.966 48.5972C198.751 48.5972 202.675 46.9715 205.354 43.9112L205.45 43.8158L202.292 40.1818L202.101 40.3732C200.091 42.5724 197.411 43.7199 194.062 43.7199C188.703 43.7199 184.779 40.66 184.013 35.7828H206.981V35.5916C207.077 35.1134 207.077 34.444 207.077 33.9659C207.173 25.0723 201.239 18.952 192.913 18.952ZM233.298 39.608C231.576 42.1902 228.896 43.6245 225.547 43.6245C219.709 43.6245 215.786 39.608 215.786 33.7746C215.786 27.9412 219.805 23.9248 225.547 23.9248C228.896 23.9248 231.576 25.2636 233.298 27.9412L233.394 28.1325L237.796 25.3592L237.7 25.168C235.404 21.2471 231.002 18.952 225.643 18.952C216.647 18.952 210.043 25.168 210.043 33.7746C210.043 42.3811 216.647 48.5972 225.643 48.5972C231.002 48.5972 235.404 46.3021 237.7 42.2856L237.796 42.0943L233.394 39.4168L233.298 39.608ZM255.022 43.6245C249.375 43.6245 245.452 39.5124 245.452 33.7746C245.452 27.9412 249.375 23.9248 255.022 23.9248C260.668 23.9248 264.592 27.9412 264.592 33.7746C264.592 39.608 260.668 43.6245 255.022 43.6245ZM255.022 18.952C246.122 18.952 239.71 25.168 239.71 33.7746C239.71 42.3811 246.122 48.5972 255.022 48.5972C263.922 48.5972 270.334 42.3811 270.334 33.7746C270.334 25.168 263.826 18.952 255.022 18.952ZM294.45 18.952L284.689 41.3294L275.118 18.952H269.281L281.817 47.5451L281.913 47.641H287.464L300 18.952H294.45ZM30.4415 0C13.6648 0 0 13.5198 0 30.014V30.1492L5.14124 33.1236H5.27653C8.52363 30.9604 12.4472 30.1492 16.3707 30.8252C19.0767 31.366 21.6473 32.5827 23.6767 34.4755L24.6238 35.2867L25.165 34.2051C25.7061 33.1236 26.2473 32.1772 26.7885 31.2308C27.0591 30.8252 27.3297 30.5548 27.6003 30.1492L28.1415 29.4732L27.465 28.9324C24.6238 26.634 21.2414 25.0117 17.5884 24.3357C14.0707 23.6597 10.5531 23.7949 7.30597 24.8764C9.74129 14.1958 19.212 6.62473 30.4415 6.62473C36.8004 6.62473 42.7533 9.05827 47.2182 13.5198C50.4654 16.6294 52.63 20.5501 53.5769 24.8764C51.5477 24.2005 49.3827 23.9301 47.2182 23.9301H46.8122C46.0005 23.9301 45.1885 24.0652 44.2416 24.0652H44.1062C43.8356 24.0652 43.43 24.2005 43.1593 24.2005C42.6179 24.3357 42.2123 24.3357 41.671 24.4708L41.265 24.6061C40.8594 24.7413 40.4534 24.8764 40.0475 25.0117H39.9122C38.9651 25.282 38.1533 25.6876 37.2063 26.0932C36.8004 26.2284 36.3945 26.4988 35.9886 26.7692H35.8533C33.8239 27.986 31.9297 29.4732 30.4415 31.366L30.3062 31.6364C29.9003 32.1772 29.6297 32.5827 29.3591 32.8531C29.0885 33.1236 28.9532 33.5292 28.6826 33.9347L28.5474 34.2051C28.2768 34.6107 28.1415 35.0163 28.0062 35.2867V35.4219C27.6003 36.2331 27.1944 37.1795 26.9238 38.1259V38.2611C26.2473 40.4244 25.8414 42.7226 25.8414 45.1562V45.4265C25.8414 45.6972 25.8414 46.1028 25.8414 46.373C25.8414 46.5084 25.8414 46.6433 25.8414 46.7786C25.8414 46.9139 25.8414 47.1842 25.8414 47.3195V47.4545V47.7251C25.8414 47.9954 25.9767 48.401 25.9767 48.6713C26.6532 51.916 28.1415 55.0255 30.4415 57.8647L30.5768 58L30.7121 57.8647C31.6592 56.7832 33.8239 53.4031 34.0945 51.3751C33.0121 49.3471 32.4709 47.0489 32.4709 44.886C32.4709 37.3147 38.4239 30.9604 46.1359 30.5548H46.6768C49.7887 30.4196 52.9007 31.366 55.4712 33.1236H55.6066L60.7477 30.1492V30.014C60.7477 22.0373 57.6358 14.4662 51.8184 8.78789C46.1359 3.10956 38.5592 0 30.4415 0Z" fill="black" fill-opacity="0.4"/>
</svg>
