<svg width="82" height="82" viewBox="0 0 82 82" fill="none" xmlns="http://www.w3.org/2000/svg">
<circle cx="41" cy="41" r="41" fill="#262626"/>
<path fill-rule="evenodd" clip-rule="evenodd" d="M44.2344 14.5108C57.5241 16.1431 67.8296 27.5294 67.8296 41.3045C67.8296 44.8079 67.193 48.1522 65.9595 51.2177L62.5376 45.4051C62.7763 44.0515 62.9355 42.6979 62.9355 41.3045C62.9355 31.4708 56.5294 23.15 47.6563 20.2836L44.2344 14.5108ZM59.1953 61.0912C54.3807 65.5502 47.9348 68.2972 40.8523 68.2972C33.7698 68.2972 27.3239 65.5502 22.5093 61.0912H31.1039C34.0483 62.5244 37.3508 63.3605 40.8523 63.3605C44.3538 63.3605 47.6961 62.5244 50.6405 61.0912H59.1953ZM15.9043 51.6158C14.5912 48.4309 13.875 44.9274 13.875 41.3045C13.875 27.3702 24.3794 15.9042 37.9079 14.4312L34.5258 20.1243C25.414 22.8714 18.8089 31.3116 18.8089 41.3045C18.8089 42.8571 18.9681 44.4098 19.2864 45.9227L15.9043 51.6158Z" fill="white"/>
<path fill-rule="evenodd" clip-rule="evenodd" d="M9.09961 61.8476L40.9312 15.2274L73.0016 61.8476L41.0506 7.70288L9.09961 61.8476Z" fill="white"/>
<path fill-rule="evenodd" clip-rule="evenodd" d="M37.8667 32.546C37.2698 34.3376 37.4688 33.9395 37.4688 33.9395C37.4688 33.8996 37.4688 33.9793 37.4688 33.9793C39.2195 34.4968 44.1534 35.4523 43.278 38.5179C42.2037 38.4382 39.8163 36.8458 39.3787 38.3188C39.1001 39.2345 39.8959 39.5132 40.5723 39.7122C41.2886 39.9511 41.8854 40.19 42.6414 40.3492L42.2833 41.7029C41.1692 41.5834 38.7022 40.0307 38.3441 41.6232C38.1452 42.5389 38.941 42.6982 39.5776 42.937C40.2938 43.1759 40.9305 43.3352 41.6467 43.574L41.209 44.9276C40.1745 44.7286 37.6677 43.2953 37.3494 44.7684C36.9913 46.2813 39.5776 46.1618 40.6917 46.8386C40.5723 47.3562 39.8959 47.8339 39.2991 48.033C36.9515 48.7496 34.405 47.2368 33.1715 46.9581L29.4711 58.4638C29.7894 58.3444 35.0018 54.6817 35.3997 54.403L41.209 50.3421C41.5671 50.4616 43.8351 52.0939 44.233 52.3725L53.0663 58.5036C52.9469 57.8268 51.3553 52.691 50.9972 51.5763C50.7187 50.581 49.0077 45.2063 48.9679 44.649L54.7772 40.3094C55.3741 39.8317 60.2682 36.2088 60.3875 36.0097L46.0235 35.6912C45.7052 35.1736 45.1084 33.1034 44.8298 32.347C44.4319 31.1924 44.034 30.0378 43.6361 28.9231C43.0393 27.251 42.0048 23.9864 41.4079 22.5133L41.209 22.1948L37.8667 32.546ZM28.9936 43.0565C28.1978 42.8176 26.845 42.6185 26.7256 41.8223C26.6062 41.2649 26.9643 40.827 27.3622 40.7075C27.9193 40.5483 30.7443 41.5834 31.381 41.8223C32.2563 42.0612 33.1317 42.3398 34.0071 42.6185C34.8427 42.8972 36.1955 43.0565 36.3149 43.8925C36.3944 44.4499 36.0761 44.848 35.6782 44.9675C35.1212 45.1267 32.2563 44.0916 31.6197 43.8925C30.7443 43.6138 29.9088 43.3352 28.9936 43.0565ZM22.5477 32.1877C23.1445 31.909 26.2083 33.1034 26.9643 33.3423L37.7871 36.8059C38.5033 37.1244 38.5829 38.1596 37.8667 38.5179C37.3096 38.7567 36.1557 38.279 35.5987 38.0799C33.6092 37.4429 23.4629 34.3376 22.6273 33.9395C21.8315 33.621 21.7519 32.6256 22.5477 32.1877ZM7.18894 30.7545C7.70621 30.5554 10.4915 31.5905 11.2077 31.8294L23.1445 35.6116C27.0041 36.8856 31.2218 38.1596 35.0416 39.4336C35.5191 39.5928 36.673 39.8715 36.9913 40.1104C37.5881 40.5085 37.429 41.5038 36.7526 41.7427C36.1159 41.9815 29.7496 39.752 28.6753 39.3937C27.1235 38.916 7.30831 32.6655 6.91042 32.3868C6.23399 31.909 6.47273 31.0332 7.18894 30.7545Z" fill="white"/>
</svg>
